HIERARCHY
ROOT Hips
{
 OFFSET 0.000000 0.000000 0.000000
 CHANNELS 6 Xposition Yposition Zposition Yrotation Xrotation Zrotation
 JOINT Chest
 {
  OFFSET 0.000000 9.857222 0.000240
  CHANNELS 3 Yrotation Xrotation Zrotation
  JOINT Chest2
  {
   OFFSET 0.000000 10.876940 -0.000436
   CHANNELS 3 Yrotation Xrotation Zrotation
   JOINT Chest3
   {
    OFFSET 0.000000 9.827798 0.000000
    CHANNELS 3 Yrotation Xrotation Zrotation
    JOINT Chest4
    {
     OFFSET 0.000000 9.827798 0.000000
     CHANNELS 3 Yrotation Xrotation Zrotation
     JOINT Neck
     {
      OFFSET 0.000000 13.831992 0.000000
      CHANNELS 3 Yrotation Xrotation Zrotation
      JOINT Head
      {
       OFFSET 0.000000 9.147643 -0.001036
       CHANNELS 3 Yrotation Xrotation Zrotation
       End Site
       {
        OFFSET 0.000000 17.515799 -0.000541
       }
      }
     }
     JOINT RightCollar
     {
      OFFSET -3.001579 7.717577 0.000000
      CHANNELS 3 Yrotation Xrotation Zrotation
      JOINT RightShoulder
      {
       OFFSET -14.002642 0.000000 0.000000
       CHANNELS 3 Yrotation Xrotation Zrotation
       JOINT RightElbow
       {
        OFFSET -30.053852 0.000000 0.000000
        CHANNELS 3 Yrotation Xrotation Zrotation
        JOINT RightWrist
        {
         OFFSET -24.564923 0.000000 -0.000000
         CHANNELS 3 Yrotation Xrotation Zrotation
         End Site
         {
          OFFSET -18.334355 0.000000 0.000000
         }
        }
       }
      }
     }
     JOINT LeftCollar
     {
      OFFSET 3.001579 7.717577 0.000000
      CHANNELS 3 Yrotation Xrotation Zrotation
      JOINT LeftShoulder
      {
       OFFSET 14.002642 0.000000 0.000000
       CHANNELS 3 Yrotation Xrotation Zrotation
       JOINT LeftElbow
       {
        OFFSET 30.053852 0.000000 0.000000
        CHANNELS 3 Yrotation Xrotation Zrotation
        JOINT LeftWrist
        {
         OFFSET 24.564923 0.000000 -0.000000
         CHANNELS 3 Yrotation Xrotation Zrotation
         End Site
         {
          OFFSET 18.334355 0.000000 0.000000
         }
        }
       }
      }
     }
    }
   }
  }
 }
 JOINT RightHip
 {
  OFFSET -8.003235 -0.001175 -0.000120
  CHANNELS 3 Yrotation Xrotation Zrotation
  JOINT RightKnee
  {
   OFFSET 0.000000 -41.759727 0.000113
   CHANNELS 3 Yrotation Xrotation Zrotation
   JOINT RightAnkle
   {
    OFFSET 0.000000 -40.728748 0.000159
    CHANNELS 3 Yrotation Xrotation Zrotation
    JOINT RightToe
    {
     OFFSET 0.000000 -6.515296 14.732841
     CHANNELS 3 Yrotation Xrotation Zrotation
     End Site
     {
      OFFSET 0.000000 -1.502839 6.412115
     }
    }
   }
  }
 }
 JOINT LeftHip
 {
  OFFSET 8.003235 -0.001175 -0.000120
  CHANNELS 3 Yrotation Xrotation Zrotation
  JOINT LeftKnee
  {
   OFFSET 0.000000 -41.759727 0.000113
   CHANNELS 3 Yrotation Xrotation Zrotation
   JOINT LeftAnkle
   {
    OFFSET 0.000000 -40.728748 0.000159
    CHANNELS 3 Yrotation Xrotation Zrotation
    JOINT LeftToe
    {
     OFFSET 0.000000 -6.515296 14.732841
     CHANNELS 3 Yrotation Xrotation Zrotation
     End Site
     {
      OFFSET 0.000000 -1.502839 6.412115
     }
    }
   }
  }
 }
}
MOTION
Frames: 17
Frame Time: 0.016667
0.000000 88.822259 0.000000 0.000000 -5.826342 0.000000 0.000000 11.116423 0.000000 0.000000 -5.290081 0.000000 0.000000 0.000000 0.000000 0.000000 0.000000 0.000000 0.000000 12.665069 0.000000 0.000000 0.575450 0.000000 0.000000 0.000000 0.000000 0.000000 0.000000 0.000000 2.337306 0.000000 0.000000 -2.337306 0.000000 0.000000 0.000000 0.000000 0.000000 0.000000 0.000000 0.000000 -2.337306 0.000000 0.000000 2.337306 0.000000 0.000000 0.000000 8.578828 0.000000 0.000000 1.905768 0.000000 0.000000 -4.658254 0.000000 0.000000 0.000000 0.000000 0.000000 8.578828 0.000000 0.000000 1.905768 0.000000 0.000000 -4.658254 0.000000 0.000000 0.000000 0.000000
8.540979 90.305444 32.607927 -29.755339 -12.942952 0.813111 2.435848 0.302128 1.096154 1.039493 0.156369 0.322483 1.039493 0.156369 0.322483 0.779537 0.117826 0.241597 4.008080 23.919372 -1.380703 7.548651 8.410943 -3.494943 4.537597 16.342147 12.311873 15.133782 10.952510 84.292620 48.339312 -4.279719 -9.228226 4.463610 3.289211 -14.930666 -15.466676 21.672229 -19.134112 -32.416030 27.685404 -84.057976 -49.408049 3.000724 3.335096 3.425720 -3.743847 16.681605 3.111711 17.201511 -0.367659 1.016386 2.365942 -1.007728 -0.412316 -6.622999 0.580346 -0.226420 0.338321 -0.211140 -11.442744 20.326124 -2.073009 13.143948 2.111645 -4.838876 -0.698481 -7.774203 1.230262 1.505699 -0.121953 0.062614
8.391989 90.255387 32.554890 -29.871078 -13.132302 0.828266 2.604446 0.474483 1.139630 1.015082 0.156633 0.327729 1.015082 0.156633 0.327729 0.761227 0.118019 0.245537 3.933868 23.823524 -1.378862 7.418797 8.228482 -3.478623 4.442993 16.112242 12.310515 14.743588 11.027125 84.034433 48.529674 -4.123371 -9.021356 4.442527 3.320208 -14.962260 -15.404903 21.521326 -19.061354 -31.803240 27.767417 -84.081007 -49.365591 3.494272 2.896839 3.424828 -3.779254 16.649395 1.954455 17.430835 -0.725454 1.146802 2.271273 -0.977338 -0.179062 -6.983143 0.693340 -0.227367 0.501423 -0.265228 -9.355106 20.902177 -1.442364 12.333103 1.569298 -4.860629 -1.230719 -7.287255 1.471556 1.376328 -0.154660 -0.064394
8.117836 90.276019 32.491423 -29.753620 -13.367857 0.739568 2.654119 0.659231 1.259460 0.976547 0.162791 0.325511 0.976547 0.162791 0.325511 0.732324 0.122614 0.243874 3.838579 23.745423 -1.381217 7.251380 8.078002 -3.463298 4.412959 16.168631 12.376544 14.742738 10.877195 83.847818 48.664850 -4.197200 -9.126466 4.428660 3.310260 -14.996275 -15.537000 21.581236 -19.082003 -31.336815 27.784708 -83.947898 -49.475724 3.839977 2.520145 3.379994 -3.821619 16.562697 0.748956 17.663431 -1.203643 1.023720 2.151057 -0.733745 0.103416 -7.348444 0.782899 -0.188713 0.697371 -0.279862 -7.377096 21.490574 -0.502565 11.101458 1.143388 -5.015920 -1.564902 -6.995209 1.564100 1.325295 -0.089162 -0.089081
8.035555 90.292327 32.410135 -29.618612 -13.597032 0.628203 2.742531 0.822834 1.419369 0.939979 0.174346 0.318924 0.939979 0.174346 0.318924 0.704893 0.131251 0.238925 3.734473 23.681536 -1.393416 7.070012 7.954113 -3.462409 4.412689 16.281251 12.419176 14.998111 10.622001 83.889013 48.715068 -4.321825 -9.555303 4.454777 3.305368 -15.029984 -15.658729 21.658543 -19.082923 -31.415425 27.870829 -83.913689 -49.638420 3.798706 2.371097 3.294658 -3.876120 16.391927 0.073960 18.006928 -1.234500 0.787826 2.101638 -0.479859 0.316132 -7.623549 0.632964 -0.265133 0.646239 -0.349775 -5.959777 21.869690 0.296390 10.252391 0.924286 -5.241914 -2.088632 -6.810598 1.610607 1.529714 0.029531 0.046636
7.926497 90.303533 32.347715 -29.212991 -13.708947 0.715767 2.568786 0.835998 1.322542 0.920199 0.216138 0.311562 0.920199 0.216138 0.311562 0.690038 0.162573 0.233347 3.632792 23.618540 -1.413163 6.894857 7.832601 -3.475473 4.417656 16.289868 12.421040 15.257404 10.360873 84.055816 48.700614 -4.333961 -10.040186 4.510617 3.285797 -15.114127 -15.706521 21.565570 -19.013354 -31.959987 28.096434 -84.027598 -49.814246 3.493446 2.398044 3.231617 -3.913731 16.200710 -0.457480 18.027730 -1.582016 1.026640 2.220841 -0.343020 -0.095489 -7.815596 0.738589 -0.272518 0.595008 -0.364359 -5.948593 21.925630 0.349814 10.377385 0.940236 -5.309128 -2.333674 -6.640083 1.689382 1.406604 0.052110 0.064758
8.008200 90.316386 32.334540 -28.886719 -13.832525 0.849606 2.451819 0.872962 1.195660 0.918447 0.274113 0.308155 0.918447 0.274113 0.308155 0.688696 0.206049 0.230704 3.544298 23.540185 -1.433596 6.744157 7.683457 -3.493819 4.428693 16.263043 12.411195 15.624116 10.118539 84.200937 48.730401 -4.424377 -10.538111 4.582051 3.248271 -15.232636 -15.731963 21.284941 -18.927265 -32.650246 28.429315 -84.135158 -49.994340 3.165089 2.485806 3.186561 -3.939262 16.095549 -0.596206 18.122232 -1.678881 1.739064 2.372151 -0.383311 -0.828872 -7.958911 0.831591 -0.329715 0.459305 -0.392685 -6.477821 21.850882 -0.042838 10.785933 1.112346 -5.203617 -2.379163 -6.558883 1.780726 1.292608 0.067903 0.097282
8.064254 90.322098 32.358454 -28.605628 -13.980247 0.918801 2.371160 0.954727 1.144986 0.924871 0.333366 0.309229 0.924871 0.333366 0.309229 0.693483 0.250494 0.231417 3.470437 23.436741 -1.456181 6.621290 7.488791 -3.520978 4.433124 16.266302 12.427871 16.117303 9.893742 84.223859 48.830573 -4.640645 -10.902410 4.639693 3.206657 -15.324284 -15.742361 21.043044 -18.869096 -33.176043 28.675285 -84.028837 -50.227256 3.039446 2.538134 3.203642 -4.032010 16.122870 -0.672222 18.196295 -1.842683 1.942129 2.509089 -0.341955 -1.070709 -8.017594 0.904694 -0.317899 0.336497 -0.359827 -6.980125 21.829457 -0.352859 10.907350 1.299062 -5.098254 -2.184708 -6.559431 1.831062 1.195979 0.082573 0.132922
8.119113 90.320099 32.411617 -28.417174 -14.230596 0.887092 2.372976 1.114665 1.218437 0.928128 0.405775 0.320831 0.928128 0.405775 0.320831 0.695880 0.304819 0.240007 3.414877 23.297724 -1.487573 6.535050 7.229783 -3.570441 4.461386 16.418975 12.458699 16.414661 9.486164 83.976633 48.888150 -4.703717 -10.774137 4.699609 3.141332 -15.359528 -15.719684 20.848090 -18.833883 -33.368892 28.757955 -83.725293 -50.592085 2.967734 2.573317 3.203033 -4.201183 16.257757 -0.749423 18.441498 -1.865215 1.697967 2.594776 -0.297690 -0.810901 -8.002356 0.833039 -0.322185 0.159626 -0.277692 -7.410724 21.973013 -0.505292 10.903739 1.466279 -5.090051 -2.081826 -6.663069 1.832909 1.310471 0.159593 0.254265
8.188493 90.315746 32.492985 -28.250127 -14.472024 0.920369 2.343614 1.264235 1.230180 0.932800 0.484829 0.345615 0.932800 0.484829 0.345615 0.699322 0.364150 0.258470 3.378727 23.126177 -1.529829 6.487983 6.912269 -3.646127 4.550782 16.595098 12.498478 16.516578 8.954450 83.486251 48.784100 -4.477369 -10.144965 4.804441 3.038061 -15.355119 -15.678449 20.674788 -18.824674 -33.239152 28.626932 -83.273652 -51.165653 2.555257 2.641779 3.209202 -4.264706 16.442642 -0.881656 18.668265 -2.011593 1.373086 2.663332 -0.293606 -0.536420 -7.962296 0.772601 -0.304771 0.025175 -0.146816 -8.173231 22.119477 -0.962932 11.444327 1.585761 -4.950285 -2.002471 -6.704542 1.881969 1.219134 0.180313 0.270525
8.280106 90.308875 32.572931 -28.179022 -14.686396 0.889328 2.336805 1.431105 1.323686 0.942116 0.580114 0.384645 0.942116 0.580114 0.384645 0.706216 0.435680 0.287587 3.354583 22.914461 -1.587301 6.468429 6.521956 -3.754492 4.762093 16.590029 12.564883 16.642027 8.355296 82.821623 48.369848 -3.916926 -9.209847 4.976389 2.978541 -15.380744 -15.617279 20.353953 -18.794876 -32.845589 28.277150 -82.711577 -51.846012 1.680320 2.631751 3.222263 -4.034877 16.582489 -0.838863 18.838029 -1.967190 1.371180 2.781538 -0.392174 -0.521675 -7.813611 0.716436 -0.313632 -0.184172 -0.026266 -8.806887 22.286301 -1.270870 11.966316 1.652867 -4.899011 -2.125474 -6.758470 1.887658 1.324263 0.236465 0.369024
8.360546 90.302327 32.656675 -28.195057 -14.931661 0.806841 2.372431 1.662226 1.476211 0.955613 0.690986 0.424914 0.955613 0.690986 0.424914 0.716221 0.518905 0.317602 3.336019 22.668166 -1.646568 6.461255 6.067973 -3.869542 5.019404 16.798801 12.629261 17.126845 7.238324 81.943386 47.390609 -2.843091 -8.186399 5.072106 3.003681 -15.407451 -15.532700 19.829373 -18.673794 -32.271273 27.812258 -82.017439 -52.464312 0.759243 2.300604 3.260342 -3.580535 16.651393 -0.684192 18.984421 -1.857850 1.511925 2.966939 -0.476760 -0.571760 -7.587050 0.658061 -0.327145 -0.432630 0.070163 -9.035047 22.522990 -1.350717 11.962169 1.708281 -4.888264 -2.088162 -6.817551 1.849444 1.486652 0.270614 0.493524
8.454707 90.300155 32.757075 -28.260873 -15.235734 0.742325 2.374883 1.845343 1.614059 0.942988 0.772185 0.468842 0.942988 0.772185 0.468842 0.706639 0.579864 0.350435 3.362353 22.494171 -1.706636 6.532552 5.750926 -3.994373 5.361956 17.176331 12.665085 17.992338 5.976104 80.776902 46.027578 -1.877631 -7.104255 5.110319 3.020688 -15.377243 -15.452972 19.856515 -18.633845 -31.646298 26.952300 -81.025769 -52.757007 0.490986 1.679008 3.175046 -3.372605 16.650756 -0.481351 19.217604 -1.767120 1.554436 3.105690 -0.529787 -0.539306 -7.305537 0.568857 -0.329223 -0.675110 0.156101 -9.102846 22.840407 -1.485184 11.758936 1.706581 -4.779938 -1.902585 -6.849515 1.804355 1.567463 0.282246 0.581677
8.518813 90.301250 32.882067 -28.354686 -15.619686 0.666086 2.375507 2.069140 1.723600 0.929594 0.864961 0.502003 0.929594 0.864961 0.502003 0.696472 0.649487 0.375180 3.400985 22.340634 -1.735174 6.616903 5.470527 -4.064825 5.666727 17.480912 12.690136 19.520153 4.642503 79.413039 44.429473 -1.764325 -6.310103 5.143783 2.985925 -15.233752 -15.577647 20.534277 -18.661796 -31.400841 25.420225 -79.678660 -52.629582 0.184616 1.185878 3.057107 -2.824647 16.427518 -0.320471 19.623639 -1.688497 1.686183 3.099827 -0.592730 -0.579298 -7.044093 0.479802 -0.307510 -0.820888 0.245387 -8.972418 23.292693 -1.561132 11.469297 1.664204 -4.672262 -1.716117 -6.868597 1.786800 1.570088 0.272173 0.628761
8.564546 90.297136 32.987915 -28.474540 -15.889377 0.550983 2.310714 2.149853 1.812073 0.933423 0.929266 0.526190 0.933423 0.929266 0.526190 0.699252 0.697756 0.393215 3.455622 22.246100 -1.726137 6.717367 5.298011 -4.068733 5.878778 17.764599 12.673269 21.869233 3.126280 78.135441 42.477734 -2.372454 -6.231196 5.235697 2.913430 -15.210060 -15.580298 20.982441 -18.526814 -31.810170 23.923316 -78.366188 -51.875015 0.151112 0.631334 2.920545 -2.392725 15.850621 -0.224522 19.975084 -1.576401 1.925203 2.976079 -0.654045 -0.617855 -6.893471 0.372617 -0.296767 -0.791857 0.312386 -8.904871 23.633905 -1.522008 11.391431 1.649955 -4.674872 -1.697044 -6.891067 1.773458 1.639335 0.266632 0.694366
8.611227 90.284621 33.049465 -28.646849 -16.051943 0.483113 2.229400 2.084688 1.829601 0.966934 0.959074 0.543995 0.966934 0.959074 0.543995 0.724330 0.720169 0.406471 3.499119 22.225167 -1.684424 6.785417 5.259006 -4.006530 6.205990 18.013451 12.778121 24.582114 1.373543 76.767422 40.067177 -3.093535 -6.579771 5.266833 2.887476 -15.292119 -15.688173 21.189797 -18.358420 -32.817635 22.614549 -77.105375 -50.702167 0.621698 0.141213 2.732237 -2.725990 15.308468 -0.332261 20.197620 -1.596562 2.301684 2.838959 -0.708595 -0.596693 -6.805371 0.297573 -0.296993 -0.676014 0.345355 -8.960595 23.810708 -1.550345 11.525677 1.691318 -4.667852 -1.756666 -6.940667 1.733292 1.739103 0.287196 0.767951
8.661186 90.272208 33.078726 -28.895150 -16.268763 0.457761 2.169875 1.977840 1.830416 1.008519 0.964955 0.555256 1.008519 0.964955 0.555256 0.755495 0.724636 0.414841 3.540994 22.290045 -1.618936 6.840138 5.377356 -3.896081 6.626540 18.590778 12.937553 27.423255 -0.734199 74.842027 37.366954 -3.689793 -6.548394 5.187106 2.935850 -15.259526 -15.869729 21.689390 -18.229960 -34.248635 21.127433 -75.578395 -49.491268 0.465749 0.024184 2.564738 -3.042156 14.938981 -0.643409 20.474344 -1.729471 2.660224 2.648188 -0.730914 -0.409631 -6.727066 0.214997 -0.304633 -0.515953 0.346628 -8.956399 24.008349 -1.615437 11.600048 1.763542 -4.625122 -1.742382 -7.004483 1.663553 1.822822 0.309835 0.835379
